<svg width="30" height="26" viewBox="0 0 30 26" fill="none" xmlns="http://www.w3.org/2000/svg">
<path d="M15 0.40625C8.04297 0.40625 2.40625 6.04297 2.40625 13C2.40625 19.957 8.04297 25.5938 15 25.5938C21.957 25.5938 27.5938 19.957 27.5938 13C27.5938 6.04297 21.957 0.40625 15 0.40625ZM17.8996 18.1848L13.4207 14.9297C13.2633 14.8129 13.1719 14.6301 13.1719 14.4371V5.89062C13.1719 5.55547 13.4461 5.28125 13.7812 5.28125H16.2188C16.5539 5.28125 16.8281 5.55547 16.8281 5.89062V12.8832L20.0527 15.2293C20.327 15.4273 20.3828 15.8082 20.1848 16.0824L18.7527 18.0527C18.5547 18.3219 18.1738 18.3828 17.8996 18.1848Z" fill="#365885"/>
</svg>
