<svg width="20" height="26" viewBox="0 0 20 26" fill="none" xmlns="http://www.w3.org/2000/svg">
<g clip-path="url(#clip0)">
<path d="M11.0277 25.4754C18.5953 14.7789 20 13.6811 20 9.75C20 4.36521 15.5229 3.91404e-07 10 8.74228e-07C4.47713 1.35705e-06 -2.00257e-06 4.36521 -1.53181e-06 9.75C-1.18814e-06 13.6811 1.40469 14.7789 8.97229 25.4754C9.46891 26.1749 10.5311 26.1748 11.0277 25.4754ZM10 13.8125C7.6988 13.8125 5.83333 11.9937 5.83333 9.75C5.83333 7.50633 7.6988 5.6875 10 5.6875C12.3012 5.6875 14.1667 7.50633 14.1667 9.75C14.1667 11.9937 12.3012 13.8125 10 13.8125Z" fill="#A1A1A1"/>
</g>
<defs>
<clipPath id="clip0">
<rect width="20" height="26" fill="white" transform="matrix(-1 8.74228e-08 8.74228e-08 1 20 0)"/>
</clipPath>
</defs>
</svg>
