<svg width="27" height="27" viewBox="0 0 27 27" fill="none" xmlns="http://www.w3.org/2000/svg">
<path fill-rule="evenodd" clip-rule="evenodd" d="M6 12C6 8.685 8.687 6 12 6C15.315 6 18 8.685 18 12C18 15.313 15.315 18 12 18C8.687 18 6 15.313 6 12ZM22 20.939L17.449 16.389C18.418 15.188 19 13.663 19 12C19 8.133 15.867 5 12 5C8.135 5 5 8.133 5 12C5 15.865 8.135 19 12 19C13.663 19 15.188 18.418 16.389 17.449L20.939 22L22 20.939Z" fill="white"/>
<path d="M22 20.939L22.3536 21.2926L22.7071 20.939L22.3535 20.5854L22 20.939ZM17.449 16.389L17.0599 16.075L16.7776 16.4248L17.0955 16.7426L17.449 16.389ZM16.389 17.449L16.7426 17.0955L16.4248 16.7776L16.075 17.0599L16.389 17.449ZM20.939 22L20.5854 22.3535L20.939 22.7071L21.2926 22.3536L20.939 22ZM6.5 12C6.5 8.96125 8.96303 6.5 12 6.5V5.5C8.41097 5.5 5.5 8.40875 5.5 12H6.5ZM12 6.5C15.0389 6.5 17.5 8.96114 17.5 12H18.5C18.5 8.40886 15.5911 5.5 12 5.5V6.5ZM17.5 12C17.5 15.037 15.0387 17.5 12 17.5V18.5C15.5913 18.5 18.5 15.589 18.5 12H17.5ZM12 17.5C8.96314 17.5 6.5 15.0369 6.5 12H5.5C5.5 15.5891 8.41086 18.5 12 18.5V17.5ZM22.3535 20.5854L17.8025 16.0354L17.0955 16.7426L21.6465 21.2926L22.3535 20.5854ZM17.8381 16.703C18.8759 15.4168 19.5 13.7819 19.5 12H18.5C18.5 13.5441 17.9601 14.9592 17.0599 16.075L17.8381 16.703ZM19.5 12C19.5 7.85686 16.1431 4.5 12 4.5V5.5C15.5909 5.5 18.5 8.40914 18.5 12H19.5ZM12 4.5C7.85895 4.5 4.5 7.85676 4.5 12H5.5C5.5 8.40924 8.41105 5.5 12 5.5V4.5ZM4.5 12C4.5 16.1411 7.85886 19.5 12 19.5V18.5C8.41114 18.5 5.5 15.5889 5.5 12H4.5ZM12 19.5C13.7819 19.5 15.4168 18.8759 16.703 17.8381L16.075 17.0599C14.9592 17.9601 13.5441 18.5 12 18.5V19.5ZM16.0354 17.8025L20.5854 22.3535L21.2926 21.6465L16.7426 17.0955L16.0354 17.8025ZM21.2926 22.3536L22.3536 21.2926L21.6464 20.5854L20.5854 21.6464L21.2926 22.3536Z" fill="white"/>
</svg>
